<mxfile host="65bd71144e">
    <diagram id="_EHXpMa-TzroeBwN9jpc" name="ページ1">
        <mxGraphModel dx="1624" dy="1068" grid="1" gridSize="10" guides="1" tooltips="1" connect="1" arrows="1" fold="1" page="1" pageScale="1" pageWidth="827" pageHeight="1169" math="0" shadow="0">
            <root>
                <mxCell id="0"/>
                <mxCell id="1" parent="0"/>
                <mxCell id="24" value="" style="group;movable=0;resizable=0;rotatable=0;deletable=0;editable=0;connectable=0;" parent="1" vertex="1" connectable="0">
                    <mxGeometry x="90" y="40" width="729" height="1008.6465384615385" as="geometry"/>
                </mxCell>
                <mxCell id="8" value="&lt;br&gt;&lt;br&gt;&lt;br&gt;翻訳者さん" style="shape=actor;whiteSpace=wrap;html=1;fontSize=24;fillColor=#60a917;strokeColor=#2D7600;fontColor=#ffffff;" parent="24" vertex="1">
                    <mxGeometry x="229.99999999999994" y="-20.000000000000114" width="198.15" height="231.36" as="geometry"/>
                </mxCell>
                <mxCell id="9" value="" style="shape=flexArrow;endArrow=classic;html=1;fontSize=24;entryX=0.5;entryY=0;entryDx=0;entryDy=0;fillColor=#dae8fc;strokeColor=#6c8ebf;movable=1;resizable=1;rotatable=1;deletable=1;editable=1;connectable=1;exitX=0.5;exitY=1;exitDx=0;exitDy=0;" parent="24" source="8" target="11" edge="1">
                    <mxGeometry width="50" height="50" relative="1" as="geometry">
                        <mxPoint x="196.04750783699058" y="562.7941176470587" as="sourcePoint"/>
                        <mxPoint x="525.4353277899687" y="340.2941176470588" as="targetPoint"/>
                    </mxGeometry>
                </mxCell>
                <mxCell id="12" value="&lt;font style=&quot;font-size: 24px;&quot; color=&quot;#171717&quot;&gt;翻訳済み&lt;br&gt;CSV&lt;br&gt;ファイル&lt;/font&gt;" style="shape=note;whiteSpace=wrap;html=1;backgroundOutline=1;darkOpacity=0.05;fontSize=20;fillColor=#f5f5f5;gradientColor=#4BCDD1;strokeColor=#666666;movable=1;resizable=1;rotatable=1;deletable=1;editable=1;connectable=1;gradientDirection=south;" parent="24" vertex="1">
                    <mxGeometry x="339.0041694200627" y="160.00110105580688" width="258.75470355799376" height="130.88235294117644" as="geometry"/>
                </mxCell>
                <mxCell id="34" value="" style="rounded=0;whiteSpace=wrap;html=1;fillColor=#FC8E0F;opacity=20;" parent="24" vertex="1">
                    <mxGeometry x="-81" y="310" width="810" height="610" as="geometry"/>
                </mxCell>
                <mxCell id="6" value="1. テキスト受け取り" style="text;html=1;strokeColor=none;fillColor=default;align=center;verticalAlign=middle;whiteSpace=wrap;rounded=0;fontSize=24;" parent="24" vertex="1">
                    <mxGeometry x="339" y="290.88" width="266.06" height="79.11" as="geometry"/>
                </mxCell>
                <mxCell id="30" value="&lt;br&gt;&lt;br&gt;&lt;br&gt;ゲーム制作者&lt;br&gt;さん" style="shape=actor;whiteSpace=wrap;html=1;fontSize=24;fillColor=#FC8E0F;strokeColor=#2D7600;fontColor=#ffffff;" parent="24" vertex="1">
                    <mxGeometry x="80" y="330" width="198.15" height="231.36" as="geometry"/>
                </mxCell>
                <mxCell id="36" value="2. 組み込み" style="text;html=1;strokeColor=none;fillColor=default;align=center;verticalAlign=middle;whiteSpace=wrap;rounded=0;fontSize=24;" vertex="1" parent="24">
                    <mxGeometry x="339" y="505" width="266.06" height="79.11" as="geometry"/>
                </mxCell>
                <mxCell id="35" value="" style="group;movable=0;resizable=0;rotatable=0;deletable=0;editable=0;connectable=0;" vertex="1" connectable="0" parent="24">
                    <mxGeometry x="152.85464007836987" y="680" width="342.2989486833856" height="238.97000000000003" as="geometry"/>
                </mxCell>
                <mxCell id="11" value="&lt;font style=&quot;font-size: 31px;&quot; color=&quot;#303030&quot;&gt;&lt;span&gt;ゲーム本体&lt;/span&gt;&lt;/font&gt;" style="rounded=0;whiteSpace=wrap;html=1;fontSize=20;fillColor=#f8cecc;strokeColor=#b85450;flipH=1;flipV=1;gradientColor=#ea6b66;" parent="24" vertex="1">
                    <mxGeometry x="152.85" y="690" width="342.3" height="220" as="geometry"/>
                </mxCell>
                <mxCell id="7" value="Langscore&lt;br&gt;プラグイン" style="shape=process;whiteSpace=wrap;html=1;backgroundOutline=1;fontSize=24;fillColor=#1ba1e2;fontColor=#ffffff;strokeColor=#006EAF;movable=1;resizable=1;rotatable=1;deletable=1;editable=1;connectable=1;" parent="24" vertex="1">
                    <mxGeometry x="310" y="690" width="184" height="80" as="geometry"/>
                </mxCell>
            </root>
        </mxGraphModel>
    </diagram>
</mxfile>